<svg width="134" height="26" viewBox="0 0 134 26" fill="none" xmlns="http://www.w3.org/2000/svg">
<path d="M12.6978 6.84056C12.3066 6.12516 11.7714 5.57956 11.0869 5.20386C10.4024 4.82816 9.60467 4.64296 8.69367 4.64296C7.68497 4.64296 6.78937 4.86936 6.00707 5.32746C5.22487 5.78546 4.61237 6.43396 4.17487 7.28316C3.73747 8.13236 3.51617 9.10506 3.51617 10.2116C3.51617 11.3181 3.73747 12.3423 4.18517 13.1915C4.63297 14.0407 5.25567 14.6892 6.05347 15.1472C6.85117 15.6053 7.77758 15.8317 8.83778 15.8317C10.1399 15.8317 11.2053 15.4869 12.039 14.7921C12.8676 14.1025 13.4132 13.1349 13.6756 11.8997H7.81358V9.28516H17.0467V12.2651C16.8202 13.454 16.3313 14.5554 15.5799 15.5641C14.8285 16.5729 13.8661 17.386 12.6875 17.9933C11.5089 18.6058 10.1862 18.9094 8.71938 18.9094C7.07248 18.9094 5.59027 18.5389 4.26237 17.7978C2.93457 17.0566 1.89497 16.0273 1.13837 14.7098C0.381874 13.3922 0.000976562 11.8946 0.000976562 10.2168C0.000976562 8.53896 0.381874 7.03606 1.13837 5.70826C1.89497 4.38046 2.93457 3.34596 4.26237 2.60486C5.59027 1.86376 7.06737 1.49316 8.69367 1.49316C10.6134 1.49316 12.286 1.96156 13.7014 2.89816C15.1167 3.83486 16.0946 5.14726 16.6298 6.84056H12.6978Z" fill="#63724B"/>
<path d="M24.7274 5.6418C25.4376 5.2352 26.2456 5.0293 27.1566 5.0293V8.6217H26.2508C25.1751 8.6217 24.3671 8.8739 23.8216 9.3782C23.276 9.8826 23.0032 10.7627 23.0032 12.0133V18.7554H19.5859V5.2249H23.0032V7.3247C23.4407 6.6093 24.0171 6.0483 24.7274 5.6418Z" fill="#63724B"/>
<path d="M31.941 18.1067C30.9014 17.5303 30.083 16.712 29.486 15.6518C28.889 14.5915 28.5957 13.3718 28.5957 11.9873C28.5957 10.6029 28.8993 9.38312 29.5118 8.32292C30.1242 7.26272 30.958 6.44442 32.013 5.86802C33.0732 5.29162 34.2518 5.00342 35.5538 5.00342C36.8558 5.00342 38.0348 5.29162 39.0948 5.86802C40.1548 6.44442 40.9888 7.26272 41.5958 8.32292C42.2088 9.38312 42.5118 10.6029 42.5118 11.9873C42.5118 13.3718 42.1978 14.5915 41.5708 15.6518C40.9428 16.712 40.0988 17.5303 39.0278 18.1067C37.9628 18.6831 36.7688 18.9713 35.4508 18.9713C34.1334 18.9713 32.9754 18.6831 31.9358 18.1067H31.941ZM37.2058 15.5437C37.7518 15.24 38.1888 14.7923 38.5128 14.1901C38.8378 13.588 39.0018 12.8571 39.0018 11.9925C39.0018 10.7058 38.6628 9.71772 37.9878 9.02292C37.3138 8.33322 36.4858 7.98332 35.5078 7.98332C34.5297 7.98332 33.7114 8.32812 33.0526 9.02292C32.3939 9.71772 32.0645 10.7058 32.0645 11.9925C32.0645 13.2792 32.3836 14.2673 33.0269 14.9621C33.6702 15.6518 34.4783 16.0017 35.4558 16.0017C36.0738 16.0017 36.6548 15.8525 37.2008 15.5488L37.2058 15.5437Z" fill="#63724B"/>
<path d="M57.8033 5.2251V18.7556H54.3603V17.0469C53.9223 17.6336 53.3463 18.0917 52.6363 18.4262C51.9253 18.7607 51.1593 18.9254 50.3303 18.9254C49.2703 18.9254 48.3333 18.7041 47.5203 18.2564C46.7073 17.8086 46.0693 17.1499 45.6003 16.2801C45.1373 15.4103 44.9053 14.3707 44.9053 13.1663V5.2302H48.3233V12.6774C48.3233 13.7531 48.5903 14.5765 49.1313 15.1581C49.6663 15.7345 50.4023 16.0227 51.3283 16.0227C52.2553 16.0227 53.0113 15.7345 53.5523 15.1581C54.0873 14.5817 54.3603 13.7531 54.3603 12.6774V5.2302H57.8033V5.2251Z" fill="#63724B"/>
<path d="M72.5788 6.5579C73.5728 7.5769 74.0668 8.9974 74.0668 10.8193V18.7554H70.6488V11.2825C70.6488 10.2068 70.3818 9.3834 69.8408 8.8018C69.3058 8.2254 68.5698 7.9372 67.6438 7.9372C66.7168 7.9372 65.9558 8.2254 65.4098 8.8018C64.8648 9.3782 64.5918 10.2068 64.5918 11.2825V18.7554H61.1738V5.2249H64.5918V6.9078C65.0498 6.3211 65.6308 5.8631 66.3368 5.5285C67.0468 5.194 67.8238 5.0293 68.6678 5.0293C70.2788 5.0293 71.5808 5.5388 72.5738 6.5579H72.5788Z" fill="#63724B"/>
<path d="M77.2593 8.30255C77.8053 7.24235 78.5513 6.42925 79.4933 5.85795C80.4353 5.28665 81.4903 5.00355 82.6423 5.00355C83.5233 5.00355 84.3613 5.19405 85.1593 5.58005C85.9573 5.96085 86.5903 6.47035 87.0633 7.10855V0.685547H90.5323V18.7605H87.0633V16.7585C86.6413 17.4275 86.0443 17.9628 85.2833 18.3694C84.5163 18.776 83.6313 18.9818 82.6223 18.9818C81.4843 18.9818 80.4403 18.6885 79.4983 18.1017C78.5563 17.515 77.8103 16.6916 77.2643 15.6211C76.7193 14.5557 76.4463 13.3308 76.4463 11.9464C76.4463 10.5619 76.7193 9.36795 77.2643 8.30775L77.2593 8.30255ZM86.6003 9.85175C86.2763 9.25985 85.8333 8.80185 85.2833 8.48275C84.7273 8.16365 84.1353 8.00405 83.5023 8.00405C82.8693 8.00405 82.2823 8.15845 81.7423 8.46725C81.2073 8.77605 80.7693 9.22895 80.4353 9.82085C80.1003 10.4178 79.9353 11.1178 79.9353 11.9309C79.9353 12.7441 80.1003 13.4595 80.4353 14.0668C80.7693 14.6792 81.2073 15.1476 81.7523 15.4718C82.2983 15.7961 82.8793 15.9607 83.4973 15.9607C84.1143 15.9607 84.7273 15.8012 85.2783 15.4821C85.8283 15.163 86.2713 14.7101 86.5953 14.1131C86.9193 13.5212 87.0843 12.8059 87.0843 11.9772C87.0843 11.1486 86.9193 10.4333 86.5953 9.84145L86.6003 9.85175Z" fill="#63724B"/>
<path d="M97.2939 0.685547V18.7605H93.877V0.685547H97.2939Z" fill="#63724B"/>
<path d="M113.147 13.017H103.255C103.337 13.9948 103.677 14.7617 104.279 15.3124C104.881 15.8682 105.622 16.141 106.502 16.141C107.774 16.141 108.674 15.5954 109.215 14.5044H112.905C112.514 15.8065 111.767 16.877 110.656 17.7159C109.549 18.5548 108.19 18.9716 106.58 18.9716C105.277 18.9716 104.109 18.6834 103.075 18.107C102.04 17.5306 101.237 16.7123 100.656 15.6521C100.079 14.5918 99.791 13.3721 99.791 11.9876C99.791 10.6032 100.074 9.35773 100.645 8.29753C101.217 7.23733 102.014 6.42414 103.039 5.85294C104.063 5.28164 105.247 4.99854 106.58 4.99854C107.913 4.99854 109.019 5.27644 110.033 5.82714C111.052 6.38304 111.839 7.16524 112.4 8.18434C112.961 9.20334 113.244 10.3716 113.244 11.6891C113.244 12.1781 113.214 12.6155 113.147 13.0067V13.017ZM109.704 10.7216C109.688 9.84154 109.369 9.13644 108.751 8.61154C108.134 8.08134 107.377 7.81894 106.482 7.81894C105.633 7.81894 104.922 8.07624 104.346 8.58574C103.77 9.09524 103.414 9.81064 103.286 10.7216H109.709H109.704Z" fill="#63724B"/>
<path d="M128.676 5.2251L120.297 25.1529H116.659L119.587 18.4108L114.168 5.2251H118.002L121.496 14.6743L125.037 5.2251H128.676Z" fill="#63724B"/>
<path d="M131.57 14.7158C132.027 14.7158 132.432 14.8188 132.786 15.0249C133.14 15.2264 133.415 15.5086 133.612 15.8714C133.81 16.2342 133.908 16.6463 133.908 17.1076C133.908 17.5689 133.81 17.9833 133.612 18.3505C133.415 18.7133 133.14 18.9978 132.786 19.2038C132.432 19.4053 132.027 19.5061 131.57 19.5061C131.113 19.5061 130.706 19.4053 130.347 19.2038C129.993 18.9978 129.718 18.7133 129.521 18.3505C129.324 17.9833 129.225 17.5689 129.225 17.1076C129.225 16.6463 129.324 16.2342 129.521 15.8714C129.718 15.5086 129.993 15.2264 130.347 15.0249C130.706 14.8188 131.113 14.7158 131.57 14.7158ZM131.57 15.0249C131.162 15.0249 130.806 15.11 130.502 15.2802C130.202 15.4504 129.969 15.6945 129.803 16.0125C129.642 16.326 129.561 16.6911 129.561 17.1076C129.561 17.5242 129.642 17.8892 129.803 18.2027C129.969 18.5163 130.202 18.7604 130.502 18.935C130.806 19.1097 131.162 19.1971 131.57 19.1971C131.973 19.1971 132.325 19.1097 132.625 18.935C132.929 18.7604 133.162 18.5163 133.324 18.2027C133.489 17.8892 133.572 17.5242 133.572 17.1076C133.572 16.6911 133.489 16.326 133.324 16.0125C133.162 15.6945 132.932 15.4504 132.632 15.2802C132.331 15.11 131.978 15.0249 131.57 15.0249ZM131.55 15.5623C131.277 15.5623 131.028 15.6273 130.804 15.7572C130.58 15.8826 130.403 16.0617 130.273 16.2947C130.148 16.5276 130.085 16.7963 130.085 17.1009C130.085 17.4055 130.15 17.6764 130.28 17.9138C130.41 18.1467 130.585 18.3281 130.804 18.458C131.028 18.5834 131.277 18.6461 131.55 18.6461C131.89 18.6461 132.184 18.5566 132.43 18.3774C132.676 18.1938 132.842 17.9541 132.927 17.6585H132.228C132.17 17.8019 132.087 17.9116 131.98 17.9877C131.872 18.0639 131.729 18.1019 131.55 18.1019C131.312 18.1019 131.122 18.0168 130.979 17.8466C130.835 17.672 130.764 17.4234 130.764 17.1009C130.764 16.7784 130.835 16.532 130.979 16.3618C131.122 16.1916 131.312 16.1065 131.55 16.1065C131.72 16.1065 131.863 16.1446 131.98 16.2208C132.101 16.2969 132.184 16.4066 132.228 16.55H132.927C132.842 16.2364 132.679 15.9946 132.437 15.8244C132.195 15.6497 131.899 15.5623 131.55 15.5623Z" fill="#63724B"/>
</svg>
